<svg id="Layer_1" data-name="Layer 1" xmlns="http://www.w3.org/2000/svg" viewBox="0 0 174 174"><defs><style>.cls-1{fill:#0554f2;}</style></defs><title>background</title><rect class="cls-1" width="6" height="6"/><rect class="cls-1" x="6" width="6" height="6"/><rect class="cls-1" x="12" width="6" height="6"/><rect class="cls-1" x="18" width="6" height="6"/><rect class="cls-1" x="24" width="6" height="6"/><rect class="cls-1" x="30" width="6" height="6"/><rect class="cls-1" x="36" width="6" height="6"/><rect class="cls-1" x="54" width="6" height="6"/><rect class="cls-1" x="78" width="6" height="6"/><rect class="cls-1" x="96" width="6" height="6"/><rect class="cls-1" x="108" width="6" height="6"/><rect class="cls-1" x="114" width="6" height="6"/><rect class="cls-1" x="120" width="6" height="6"/><rect class="cls-1" x="132" width="6" height="6"/><rect class="cls-1" x="138" width="6" height="6"/><rect class="cls-1" x="144" width="6" height="6"/><rect class="cls-1" x="150" width="6" height="6"/><rect class="cls-1" x="156" width="6" height="6"/><rect class="cls-1" x="162" width="6" height="6"/><rect class="cls-1" x="168" width="6" height="6"/><rect class="cls-1" y="6" width="6" height="6"/><rect class="cls-1" x="36" y="6" width="6" height="6"/><rect class="cls-1" x="48" y="6" width="6" height="6"/><rect class="cls-1" x="54" y="6" width="6" height="6"/><rect class="cls-1" x="66" y="6" width="6" height="6"/><rect class="cls-1" x="72" y="6" width="6" height="6"/><rect class="cls-1" x="90" y="6" width="6" height="6"/><rect class="cls-1" x="102" y="6" width="6" height="6"/><rect class="cls-1" x="132" y="6" width="6" height="6"/><rect class="cls-1" x="168" y="6" width="6" height="6"/><rect class="cls-1" y="12" width="6" height="6"/><rect class="cls-1" x="12" y="12" width="6" height="6"/><rect class="cls-1" x="18" y="12" width="6" height="6"/><rect class="cls-1" x="24" y="12" width="6" height="6"/><rect class="cls-1" x="36" y="12" width="6" height="6"/><rect class="cls-1" x="54" y="12" width="6" height="6"/><rect class="cls-1" x="60" y="12" width="6" height="6"/><rect class="cls-1" x="66" y="12" width="6" height="6"/><rect class="cls-1" x="84" y="12" width="6" height="6"/><rect class="cls-1" x="96" y="12" width="6" height="6"/><rect class="cls-1" x="108" y="12" width="6" height="6"/><rect class="cls-1" x="120" y="12" width="6" height="6"/><rect class="cls-1" x="132" y="12" width="6" height="6"/><rect class="cls-1" x="144" y="12" width="6" height="6"/><rect class="cls-1" x="150" y="12" width="6" height="6"/><rect class="cls-1" x="156" y="12" width="6" height="6"/><rect class="cls-1" x="168" y="12" width="6" height="6"/><rect class="cls-1" y="18" width="6" height="6"/><rect class="cls-1" x="12" y="18" width="6" height="6"/><rect class="cls-1" x="18" y="18" width="6" height="6"/><rect class="cls-1" x="24" y="18" width="6" height="6"/><rect class="cls-1" x="36" y="18" width="6" height="6"/><rect class="cls-1" x="48" y="18" width="6" height="6"/><rect class="cls-1" x="54" y="18" width="6" height="6"/><rect class="cls-1" x="66" y="18" width="6" height="6"/><rect class="cls-1" x="78" y="18" width="6" height="6"/><rect class="cls-1" x="84" y="18" width="6" height="6"/><rect class="cls-1" x="102" y="18" width="6" height="6"/><rect class="cls-1" x="120" y="18" width="6" height="6"/><rect class="cls-1" x="132" y="18" width="6" height="6"/><rect class="cls-1" x="144" y="18" width="6" height="6"/><rect class="cls-1" x="150" y="18" width="6" height="6"/><rect class="cls-1" x="156" y="18" width="6" height="6"/><rect class="cls-1" x="168" y="18" width="6" height="6"/><rect class="cls-1" y="24" width="6" height="6"/><rect class="cls-1" x="12" y="24" width="6" height="6"/><rect class="cls-1" x="18" y="24" width="6" height="6"/><rect class="cls-1" x="24" y="24" width="6" height="6"/><rect class="cls-1" x="36" y="24" width="6" height="6"/><rect class="cls-1" x="60" y="24" width="6" height="6"/><rect class="cls-1" x="72" y="24" width="6" height="6"/><rect class="cls-1" x="78" y="24" width="6" height="6"/><rect class="cls-1" x="102" y="24" width="6" height="6"/><rect class="cls-1" x="108" y="24" width="6" height="6"/><rect class="cls-1" x="114" y="24" width="6" height="6"/><rect class="cls-1" x="120" y="24" width="6" height="6"/><rect class="cls-1" x="132" y="24" width="6" height="6"/><rect class="cls-1" x="144" y="24" width="6" height="6"/><rect class="cls-1" x="150" y="24" width="6" height="6"/><rect class="cls-1" x="156" y="24" width="6" height="6"/><rect class="cls-1" x="168" y="24" width="6" height="6"/><rect class="cls-1" y="30" width="6" height="6"/><rect class="cls-1" x="36" y="30" width="6" height="6"/><rect class="cls-1" x="48" y="30" width="6" height="6"/><rect class="cls-1" x="60" y="30" width="6" height="6"/><rect class="cls-1" x="78" y="30" width="6" height="6"/><rect class="cls-1" x="84" y="30" width="6" height="6"/><rect class="cls-1" x="90" y="30" width="6" height="6"/><rect class="cls-1" x="96" y="30" width="6" height="6"/><rect class="cls-1" x="102" y="30" width="6" height="6"/><rect class="cls-1" x="132" y="30" width="6" height="6"/><rect class="cls-1" x="168" y="30" width="6" height="6"/><rect class="cls-1" y="36" width="6" height="6"/><rect class="cls-1" x="6" y="36" width="6" height="6"/><rect class="cls-1" x="12" y="36" width="6" height="6"/><rect class="cls-1" x="18" y="36" width="6" height="6"/><rect class="cls-1" x="24" y="36" width="6" height="6"/><rect class="cls-1" x="30" y="36" width="6" height="6"/><rect class="cls-1" x="36" y="36" width="6" height="6"/><rect class="cls-1" x="48" y="36" width="6" height="6"/><rect class="cls-1" x="60" y="36" width="6" height="6"/><rect class="cls-1" x="72" y="36" width="6" height="6"/><rect class="cls-1" x="84" y="36" width="6" height="6"/><rect class="cls-1" x="96" y="36" width="6" height="6"/><rect class="cls-1" x="108" y="36" width="6" height="6"/><rect class="cls-1" x="120" y="36" width="6" height="6"/><rect class="cls-1" x="132" y="36" width="6" height="6"/><rect class="cls-1" x="138" y="36" width="6" height="6"/><rect class="cls-1" x="144" y="36" width="6" height="6"/><rect class="cls-1" x="150" y="36" width="6" height="6"/><rect class="cls-1" x="156" y="36" width="6" height="6"/><rect class="cls-1" x="162" y="36" width="6" height="6"/><rect class="cls-1" x="168" y="36" width="6" height="6"/><rect class="cls-1" x="72" y="42" width="6" height="6"/><rect class="cls-1" x="84" y="42" width="6" height="6"/><rect class="cls-1" x="96" y="42" width="6" height="6"/><rect class="cls-1" x="114" y="42" width="6" height="6"/><rect class="cls-1" y="48" width="6" height="6"/><rect class="cls-1" x="6" y="48" width="6" height="6"/><rect class="cls-1" x="12" y="48" width="6" height="6"/><rect class="cls-1" x="18" y="48" width="6" height="6"/><rect class="cls-1" x="24" y="48" width="6" height="6"/><rect class="cls-1" x="36" y="48" width="6" height="6"/><rect class="cls-1" x="42" y="48" width="6" height="6"/><rect class="cls-1" x="48" y="48" width="6" height="6"/><rect class="cls-1" x="54" y="48" width="6" height="6"/><rect class="cls-1" x="60" y="48" width="6" height="6"/><rect class="cls-1" x="72" y="48" width="6" height="6"/><rect class="cls-1" x="78" y="48" width="6" height="6"/><rect class="cls-1" x="90" y="48" width="6" height="6"/><rect class="cls-1" x="96" y="48" width="6" height="6"/><rect class="cls-1" x="102" y="48" width="6" height="6"/><rect class="cls-1" x="120" y="48" width="6" height="6"/><rect class="cls-1" x="126" y="48" width="6" height="6"/><rect class="cls-1" x="138" y="48" width="6" height="6"/><rect class="cls-1" x="150" y="48" width="6" height="6"/><rect class="cls-1" x="162" y="48" width="6" height="6"/><rect class="cls-1" y="54" width="6" height="6"/><rect class="cls-1" x="12" y="54" width="6" height="6"/><rect class="cls-1" x="30" y="54" width="6" height="6"/><rect class="cls-1" x="42" y="54" width="6" height="6"/><rect class="cls-1" x="54" y="54" width="6" height="6"/><rect class="cls-1" x="78" y="54" width="6" height="6"/><rect class="cls-1" x="96" y="54" width="6" height="6"/><rect class="cls-1" x="102" y="54" width="6" height="6"/><rect class="cls-1" x="108" y="54" width="6" height="6"/><rect class="cls-1" x="114" y="54" width="6" height="6"/><rect class="cls-1" x="120" y="54" width="6" height="6"/><rect class="cls-1" x="126" y="54" width="6" height="6"/><rect class="cls-1" x="132" y="54" width="6" height="6"/><rect class="cls-1" x="138" y="54" width="6" height="6"/><rect class="cls-1" x="144" y="54" width="6" height="6"/><rect class="cls-1" x="168" y="54" width="6" height="6"/><rect class="cls-1" x="30" y="60" width="6" height="6"/><rect class="cls-1" x="36" y="60" width="6" height="6"/><rect class="cls-1" x="54" y="60" width="6" height="6"/><rect class="cls-1" x="66" y="60" width="6" height="6"/><rect class="cls-1" x="72" y="60" width="6" height="6"/><rect class="cls-1" x="78" y="60" width="6" height="6"/><rect class="cls-1" x="84" y="60" width="6" height="6"/><rect class="cls-1" x="90" y="60" width="6" height="6"/><rect class="cls-1" x="96" y="60" width="6" height="6"/><rect class="cls-1" x="120" y="60" width="6" height="6"/><rect class="cls-1" x="126" y="60" width="6" height="6"/><rect class="cls-1" x="138" y="60" width="6" height="6"/><rect class="cls-1" x="12" y="66" width="6" height="6"/><rect class="cls-1" x="30" y="66" width="6" height="6"/><rect class="cls-1" x="42" y="66" width="6" height="6"/><rect class="cls-1" x="54" y="66" width="6" height="6"/><rect class="cls-1" x="60" y="66" width="6" height="6"/><rect class="cls-1" x="66" y="66" width="6" height="6"/><rect class="cls-1" x="84" y="66" width="6" height="6"/><rect class="cls-1" x="96" y="66" width="6" height="6"/><rect class="cls-1" x="108" y="66" width="6" height="6"/><rect class="cls-1" x="114" y="66" width="6" height="6"/><rect class="cls-1" x="120" y="66" width="6" height="6"/><rect class="cls-1" x="144" y="66" width="6" height="6"/><rect class="cls-1" x="150" y="66" width="6" height="6"/><rect class="cls-1" x="162" y="66" width="6" height="6"/><rect class="cls-1" y="72" width="6" height="6"/><rect class="cls-1" x="24" y="72" width="6" height="6"/><rect class="cls-1" x="36" y="72" width="6" height="6"/><rect class="cls-1" x="54" y="72" width="6" height="6"/><rect class="cls-1" x="66" y="72" width="6" height="6"/><rect class="cls-1" x="102" y="72" width="6" height="6"/><rect class="cls-1" x="114" y="72" width="6" height="6"/><rect class="cls-1" x="138" y="72" width="6" height="6"/><rect class="cls-1" x="150" y="72" width="6" height="6"/><rect class="cls-1" x="156" y="72" width="6" height="6"/><rect class="cls-1" x="6" y="78" width="6" height="6"/><rect class="cls-1" x="12" y="78" width="6" height="6"/><rect class="cls-1" x="30" y="78" width="6" height="6"/><rect class="cls-1" x="48" y="78" width="6" height="6"/><rect class="cls-1" x="54" y="78" width="6" height="6"/><rect class="cls-1" x="60" y="78" width="6" height="6"/><rect class="cls-1" x="72" y="78" width="6" height="6"/><rect class="cls-1" x="78" y="78" width="6" height="6"/><rect class="cls-1" x="96" y="78" width="6" height="6"/><rect class="cls-1" x="102" y="78" width="6" height="6"/><rect class="cls-1" x="108" y="78" width="6" height="6"/><rect class="cls-1" x="114" y="78" width="6" height="6"/><rect class="cls-1" x="120" y="78" width="6" height="6"/><rect class="cls-1" x="126" y="78" width="6" height="6"/><rect class="cls-1" x="132" y="78" width="6" height="6"/><rect class="cls-1" x="138" y="78" width="6" height="6"/><rect class="cls-1" x="144" y="78" width="6" height="6"/><rect class="cls-1" x="168" y="78" width="6" height="6"/><rect class="cls-1" x="6" y="84" width="6" height="6"/><rect class="cls-1" x="18" y="84" width="6" height="6"/><rect class="cls-1" x="36" y="84" width="6" height="6"/><rect class="cls-1" x="54" y="84" width="6" height="6"/><rect class="cls-1" x="60" y="84" width="6" height="6"/><rect class="cls-1" x="78" y="84" width="6" height="6"/><rect class="cls-1" x="84" y="84" width="6" height="6"/><rect class="cls-1" x="90" y="84" width="6" height="6"/><rect class="cls-1" x="108" y="84" width="6" height="6"/><rect class="cls-1" x="132" y="84" width="6" height="6"/><rect class="cls-1" x="138" y="84" width="6" height="6"/><rect class="cls-1" x="144" y="84" width="6" height="6"/><rect class="cls-1" x="150" y="84" width="6" height="6"/><rect class="cls-1" x="156" y="84" width="6" height="6"/><rect class="cls-1" y="90" width="6" height="6"/><rect class="cls-1" x="6" y="90" width="6" height="6"/><rect class="cls-1" x="12" y="90" width="6" height="6"/><rect class="cls-1" x="42" y="90" width="6" height="6"/><rect class="cls-1" x="48" y="90" width="6" height="6"/><rect class="cls-1" x="72" y="90" width="6" height="6"/><rect class="cls-1" x="78" y="90" width="6" height="6"/><rect class="cls-1" x="90" y="90" width="6" height="6"/><rect class="cls-1" x="96" y="90" width="6" height="6"/><rect class="cls-1" x="138" y="90" width="6" height="6"/><rect class="cls-1" x="144" y="90" width="6" height="6"/><rect class="cls-1" x="162" y="90" width="6" height="6"/><rect class="cls-1" y="96" width="6" height="6"/><rect class="cls-1" x="12" y="96" width="6" height="6"/><rect class="cls-1" x="24" y="96" width="6" height="6"/><rect class="cls-1" x="30" y="96" width="6" height="6"/><rect class="cls-1" x="36" y="96" width="6" height="6"/><rect class="cls-1" x="42" y="96" width="6" height="6"/><rect class="cls-1" x="54" y="96" width="6" height="6"/><rect class="cls-1" x="72" y="96" width="6" height="6"/><rect class="cls-1" x="84" y="96" width="6" height="6"/><rect class="cls-1" x="102" y="96" width="6" height="6"/><rect class="cls-1" x="120" y="96" width="6" height="6"/><rect class="cls-1" x="150" y="96" width="6" height="6"/><rect class="cls-1" x="156" y="96" width="6" height="6"/><rect class="cls-1" y="102" width="6" height="6"/><rect class="cls-1" x="18" y="102" width="6" height="6"/><rect class="cls-1" x="96" y="102" width="6" height="6"/><rect class="cls-1" x="102" y="102" width="6" height="6"/><rect class="cls-1" x="108" y="102" width="6" height="6"/><rect class="cls-1" x="114" y="102" width="6" height="6"/><rect class="cls-1" x="120" y="102" width="6" height="6"/><rect class="cls-1" x="126" y="102" width="6" height="6"/><rect class="cls-1" x="132" y="102" width="6" height="6"/><rect class="cls-1" x="138" y="102" width="6" height="6"/><rect class="cls-1" x="144" y="102" width="6" height="6"/><rect class="cls-1" x="156" y="102" width="6" height="6"/><rect class="cls-1" x="168" y="102" width="6" height="6"/><rect class="cls-1" y="108" width="6" height="6"/><rect class="cls-1" x="12" y="108" width="6" height="6"/><rect class="cls-1" x="24" y="108" width="6" height="6"/><rect class="cls-1" x="36" y="108" width="6" height="6"/><rect class="cls-1" x="42" y="108" width="6" height="6"/><rect class="cls-1" x="54" y="108" width="6" height="6"/><rect class="cls-1" x="60" y="108" width="6" height="6"/><rect class="cls-1" x="66" y="108" width="6" height="6"/><rect class="cls-1" x="72" y="108" width="6" height="6"/><rect class="cls-1" x="90" y="108" width="6" height="6"/><rect class="cls-1" x="102" y="108" width="6" height="6"/><rect class="cls-1" x="120" y="108" width="6" height="6"/><rect class="cls-1" x="132" y="108" width="6" height="6"/><rect class="cls-1" x="138" y="108" width="6" height="6"/><rect class="cls-1" x="144" y="108" width="6" height="6"/><rect class="cls-1" x="156" y="108" width="6" height="6"/><rect class="cls-1" y="114" width="6" height="6"/><rect class="cls-1" x="48" y="114" width="6" height="6"/><rect class="cls-1" x="54" y="114" width="6" height="6"/><rect class="cls-1" x="66" y="114" width="6" height="6"/><rect class="cls-1" x="84" y="114" width="6" height="6"/><rect class="cls-1" x="96" y="114" width="6" height="6"/><rect class="cls-1" x="120" y="114" width="6" height="6"/><rect class="cls-1" x="126" y="114" width="6" height="6"/><rect class="cls-1" x="144" y="114" width="6" height="6"/><rect class="cls-1" x="162" y="114" width="6" height="6"/><rect class="cls-1" y="120" width="6" height="6"/><rect class="cls-1" x="12" y="120" width="6" height="6"/><rect class="cls-1" x="30" y="120" width="6" height="6"/><rect class="cls-1" x="36" y="120" width="6" height="6"/><rect class="cls-1" x="48" y="120" width="6" height="6"/><rect class="cls-1" x="60" y="120" width="6" height="6"/><rect class="cls-1" x="66" y="120" width="6" height="6"/><rect class="cls-1" x="90" y="120" width="6" height="6"/><rect class="cls-1" x="102" y="120" width="6" height="6"/><rect class="cls-1" x="108" y="120" width="6" height="6"/><rect class="cls-1" x="114" y="120" width="6" height="6"/><rect class="cls-1" x="120" y="120" width="6" height="6"/><rect class="cls-1" x="126" y="120" width="6" height="6"/><rect class="cls-1" x="132" y="120" width="6" height="6"/><rect class="cls-1" x="138" y="120" width="6" height="6"/><rect class="cls-1" x="144" y="120" width="6" height="6"/><rect class="cls-1" x="156" y="120" width="6" height="6"/><rect class="cls-1" x="162" y="120" width="6" height="6"/><rect class="cls-1" x="168" y="120" width="6" height="6"/><rect class="cls-1" x="48" y="126" width="6" height="6"/><rect class="cls-1" x="54" y="126" width="6" height="6"/><rect class="cls-1" x="60" y="126" width="6" height="6"/><rect class="cls-1" x="72" y="126" width="6" height="6"/><rect class="cls-1" x="78" y="126" width="6" height="6"/><rect class="cls-1" x="84" y="126" width="6" height="6"/><rect class="cls-1" x="96" y="126" width="6" height="6"/><rect class="cls-1" x="102" y="126" width="6" height="6"/><rect class="cls-1" x="108" y="126" width="6" height="6"/><rect class="cls-1" x="120" y="126" width="6" height="6"/><rect class="cls-1" x="144" y="126" width="6" height="6"/><rect class="cls-1" x="150" y="126" width="6" height="6"/><rect class="cls-1" x="156" y="126" width="6" height="6"/><rect class="cls-1" x="162" y="126" width="6" height="6"/><rect class="cls-1" x="168" y="126" width="6" height="6"/><rect class="cls-1" y="132" width="6" height="6"/><rect class="cls-1" x="6" y="132" width="6" height="6"/><rect class="cls-1" x="12" y="132" width="6" height="6"/><rect class="cls-1" x="18" y="132" width="6" height="6"/><rect class="cls-1" x="24" y="132" width="6" height="6"/><rect class="cls-1" x="30" y="132" width="6" height="6"/><rect class="cls-1" x="36" y="132" width="6" height="6"/><rect class="cls-1" x="48" y="132" width="6" height="6"/><rect class="cls-1" x="54" y="132" width="6" height="6"/><rect class="cls-1" x="60" y="132" width="6" height="6"/><rect class="cls-1" x="78" y="132" width="6" height="6"/><rect class="cls-1" x="84" y="132" width="6" height="6"/><rect class="cls-1" x="90" y="132" width="6" height="6"/><rect class="cls-1" x="102" y="132" width="6" height="6"/><rect class="cls-1" x="114" y="132" width="6" height="6"/><rect class="cls-1" x="120" y="132" width="6" height="6"/><rect class="cls-1" x="132" y="132" width="6" height="6"/><rect class="cls-1" x="144" y="132" width="6" height="6"/><rect class="cls-1" x="150" y="132" width="6" height="6"/><rect class="cls-1" x="156" y="132" width="6" height="6"/><rect class="cls-1" y="138" width="6" height="6"/><rect class="cls-1" x="36" y="138" width="6" height="6"/><rect class="cls-1" x="72" y="138" width="6" height="6"/><rect class="cls-1" x="78" y="138" width="6" height="6"/><rect class="cls-1" x="108" y="138" width="6" height="6"/><rect class="cls-1" x="120" y="138" width="6" height="6"/><rect class="cls-1" x="144" y="138" width="6" height="6"/><rect class="cls-1" x="168" y="138" width="6" height="6"/><rect class="cls-1" y="144" width="6" height="6"/><rect class="cls-1" x="12" y="144" width="6" height="6"/><rect class="cls-1" x="18" y="144" width="6" height="6"/><rect class="cls-1" x="24" y="144" width="6" height="6"/><rect class="cls-1" x="36" y="144" width="6" height="6"/><rect class="cls-1" x="48" y="144" width="6" height="6"/><rect class="cls-1" x="60" y="144" width="6" height="6"/><rect class="cls-1" x="72" y="144" width="6" height="6"/><rect class="cls-1" x="84" y="144" width="6" height="6"/><rect class="cls-1" x="90" y="144" width="6" height="6"/><rect class="cls-1" x="102" y="144" width="6" height="6"/><rect class="cls-1" x="120" y="144" width="6" height="6"/><rect class="cls-1" x="126" y="144" width="6" height="6"/><rect class="cls-1" x="132" y="144" width="6" height="6"/><rect class="cls-1" x="138" y="144" width="6" height="6"/><rect class="cls-1" x="144" y="144" width="6" height="6"/><rect class="cls-1" x="156" y="144" width="6" height="6"/><rect class="cls-1" y="150" width="6" height="6"/><rect class="cls-1" x="12" y="150" width="6" height="6"/><rect class="cls-1" x="18" y="150" width="6" height="6"/><rect class="cls-1" x="24" y="150" width="6" height="6"/><rect class="cls-1" x="36" y="150" width="6" height="6"/><rect class="cls-1" x="48" y="150" width="6" height="6"/><rect class="cls-1" x="60" y="150" width="6" height="6"/><rect class="cls-1" x="96" y="150" width="6" height="6"/><rect class="cls-1" x="114" y="150" width="6" height="6"/><rect class="cls-1" x="150" y="150" width="6" height="6"/><rect class="cls-1" x="156" y="150" width="6" height="6"/><rect class="cls-1" x="162" y="150" width="6" height="6"/><rect class="cls-1" x="168" y="150" width="6" height="6"/><rect class="cls-1" y="156" width="6" height="6"/><rect class="cls-1" x="12" y="156" width="6" height="6"/><rect class="cls-1" x="18" y="156" width="6" height="6"/><rect class="cls-1" x="24" y="156" width="6" height="6"/><rect class="cls-1" x="36" y="156" width="6" height="6"/><rect class="cls-1" x="48" y="156" width="6" height="6"/><rect class="cls-1" x="54" y="156" width="6" height="6"/><rect class="cls-1" x="66" y="156" width="6" height="6"/><rect class="cls-1" x="72" y="156" width="6" height="6"/><rect class="cls-1" x="90" y="156" width="6" height="6"/><rect class="cls-1" x="96" y="156" width="6" height="6"/><rect class="cls-1" x="102" y="156" width="6" height="6"/><rect class="cls-1" x="114" y="156" width="6" height="6"/><rect class="cls-1" x="126" y="156" width="6" height="6"/><rect class="cls-1" x="132" y="156" width="6" height="6"/><rect class="cls-1" x="138" y="156" width="6" height="6"/><rect class="cls-1" x="144" y="156" width="6" height="6"/><rect class="cls-1" x="150" y="156" width="6" height="6"/><rect class="cls-1" x="156" y="156" width="6" height="6"/><rect class="cls-1" x="162" y="156" width="6" height="6"/><rect class="cls-1" y="162" width="6" height="6"/><rect class="cls-1" x="36" y="162" width="6" height="6"/><rect class="cls-1" x="48" y="162" width="6" height="6"/><rect class="cls-1" x="54" y="162" width="6" height="6"/><rect class="cls-1" x="66" y="162" width="6" height="6"/><rect class="cls-1" x="84" y="162" width="6" height="6"/><rect class="cls-1" x="90" y="162" width="6" height="6"/><rect class="cls-1" x="96" y="162" width="6" height="6"/><rect class="cls-1" x="120" y="162" width="6" height="6"/><rect class="cls-1" x="144" y="162" width="6" height="6"/><rect class="cls-1" x="150" y="162" width="6" height="6"/><rect class="cls-1" x="162" y="162" width="6" height="6"/><rect class="cls-1" y="168" width="6" height="6"/><rect class="cls-1" x="6" y="168" width="6" height="6"/><rect class="cls-1" x="12" y="168" width="6" height="6"/><rect class="cls-1" x="18" y="168" width="6" height="6"/><rect class="cls-1" x="24" y="168" width="6" height="6"/><rect class="cls-1" x="30" y="168" width="6" height="6"/><rect class="cls-1" x="36" y="168" width="6" height="6"/><rect class="cls-1" x="48" y="168" width="6" height="6"/><rect class="cls-1" x="66" y="168" width="6" height="6"/><rect class="cls-1" x="90" y="168" width="6" height="6"/><rect class="cls-1" x="102" y="168" width="6" height="6"/><rect class="cls-1" x="114" y="168" width="6" height="6"/><rect class="cls-1" x="138" y="168" width="6" height="6"/><rect class="cls-1" x="144" y="168" width="6" height="6"/><rect class="cls-1" x="150" y="168" width="6" height="6"/><rect class="cls-1" x="156" y="168" width="6" height="6"/></svg>